<svg width="844" height="391" viewBox="0 0 844 391" fill="none" xmlns="http://www.w3.org/2000/svg">
<path d="M10.295 262.3C10.9577 262.3 11.6203 262.3 12.283 262.3C12.9457 262.3 13.632 262.3 14.342 262.3C15.052 262.3 15.7147 262.3 16.33 262.3C16.5193 262.3 16.6613 262.347 16.756 262.442C16.8507 262.489 16.9217 262.584 16.969 262.726C17.0637 262.868 17.0873 263.081 17.04 263.365C16.9927 264.501 16.9453 266.205 16.898 268.477C16.8507 270.702 16.7797 273.329 16.685 276.358C16.5903 279.34 16.4483 282.559 16.259 286.014C16.117 289.422 15.9277 292.901 15.691 296.451C15.5017 299.954 15.2887 303.362 15.052 306.675L13.49 304.474H17.75L15.407 306.533C16.827 303.409 18.4127 299.977 20.164 296.238C21.9627 292.451 23.8087 288.57 25.702 284.594C27.6427 280.571 29.536 276.666 31.382 272.879C33.228 269.045 34.9557 265.519 36.565 262.3H44.73C44.872 262.3 44.9903 262.324 45.085 262.371C45.227 262.418 45.298 262.489 45.298 262.584C45.3453 262.679 45.369 262.821 45.369 263.01C45.369 265.282 45.369 267.838 45.369 270.678C45.4163 273.518 45.44 276.524 45.44 279.695C45.44 282.866 45.44 286.061 45.44 289.28C45.44 292.499 45.4163 295.599 45.369 298.581C45.3217 301.516 45.2743 304.19 45.227 306.604L43.807 304.474H48.422L45.582 306.391C46.9547 303.125 48.351 299.883 49.771 296.664C51.2383 293.445 52.6583 290.274 54.031 287.15C55.451 284.026 56.8473 280.997 58.22 278.062C59.5927 275.127 60.8707 272.335 62.054 269.684C63.2847 267.033 64.4207 264.572 65.462 262.3C66.1247 262.3 66.811 262.3 67.521 262.3C68.231 262.3 68.941 262.3 69.651 262.3C70.361 262.3 71.0237 262.3 71.639 262.3C71.8757 262.3 72.0413 262.347 72.136 262.442C72.278 262.537 72.349 262.655 72.349 262.797C72.3963 262.939 72.3727 263.105 72.278 263.294C71.3313 265.14 70.29 267.27 69.154 269.684C68.018 272.051 66.811 274.607 65.533 277.352C64.255 280.097 62.9297 282.937 61.557 285.872C60.1843 288.807 58.788 291.789 57.368 294.818C55.948 297.847 54.5517 300.829 53.179 303.764C51.8063 306.699 50.481 309.515 49.203 312.213C48.5877 312.213 47.9013 312.213 47.144 312.213C46.3867 312.213 45.6057 312.213 44.801 312.213C43.9963 312.213 43.2153 312.213 42.458 312.213C41.7007 312.213 41.038 312.213 40.47 312.213C40.2807 312.213 40.115 312.142 39.973 312C39.8783 311.858 39.831 311.598 39.831 311.219C39.7837 308.9 39.7363 306.083 39.689 302.77C39.6417 299.457 39.5943 295.907 39.547 292.12C39.4997 288.286 39.476 284.428 39.476 280.547C39.476 276.666 39.547 272.974 39.689 269.471L40.967 271.388H36.778L39.263 269.542C37.8903 272.429 36.4467 275.459 34.932 278.63C33.4647 281.801 31.95 284.996 30.388 288.215C28.826 291.386 27.3113 294.463 25.844 297.445C24.3767 300.427 23.004 303.172 21.726 305.681C20.4953 308.19 19.4303 310.367 18.531 312.213C17.679 312.213 16.7087 312.213 15.62 312.213C14.5787 312.213 13.5137 312.213 12.425 312.213C11.3363 312.213 10.366 312.213 9.514 312.213C9.32467 312.213 9.159 312.142 9.017 312C8.92233 311.858 8.89867 311.598 8.946 311.219C8.946 309.61 8.946 307.598 8.946 305.184C8.99333 302.77 9.06433 300.096 9.159 297.161C9.25367 294.226 9.34833 291.15 9.443 287.931C9.585 284.665 9.70333 281.399 9.798 278.133C9.89267 274.82 9.98733 271.601 10.082 268.477C10.1293 267.388 10.153 266.323 10.153 265.282C10.2003 264.241 10.2477 263.247 10.295 262.3ZM83.2969 280.547H85.6399C86.5392 278.985 87.5095 277.683 88.5509 276.642C89.5922 275.553 90.7519 274.772 92.0299 274.299C93.3079 273.778 94.7042 273.518 96.2189 273.518C97.3549 273.518 98.2779 273.636 98.9879 273.873C99.6979 274.11 100.171 274.346 100.408 274.583C100.503 274.678 100.574 274.796 100.621 274.938C100.716 275.033 100.739 275.151 100.692 275.293C100.55 275.766 100.408 276.24 100.266 276.713C100.171 277.186 100.053 277.636 99.9109 278.062C99.8162 278.488 99.6979 278.938 99.5559 279.411C99.4612 279.884 99.3429 280.381 99.2009 280.902H98.0649C97.5915 280.713 97.0472 280.547 96.4319 280.405C95.8165 280.216 95.0119 280.121 94.0179 280.121C92.5032 280.121 91.0595 280.405 89.6869 280.973C88.3615 281.541 86.9889 282.559 85.5689 284.026C84.1489 285.446 82.6105 287.41 80.9539 289.919L83.2969 280.547ZM76.5519 312C75.8892 312 75.1792 312 74.4219 312C73.7119 312 72.9782 312 72.2209 312C71.5109 312 70.8245 312 70.1619 312C70.0672 312 69.9725 312 69.8779 312C69.7832 311.953 69.7122 311.905 69.6649 311.858C69.6175 311.763 69.5702 311.669 69.5229 311.574C69.5229 311.479 69.5465 311.361 69.5939 311.219C69.6885 310.935 69.9252 310.059 70.3039 308.592C70.6825 307.077 71.1322 305.208 71.6529 302.983C72.2209 300.711 72.8125 298.297 73.4279 295.741C74.0905 293.138 74.7295 290.582 75.3449 288.073C76.0075 285.517 76.5992 283.245 77.1199 281.257C77.4985 279.742 77.8299 278.393 78.1139 277.21C78.4452 275.979 78.6819 274.985 78.8239 274.228C79.5812 274.228 80.3385 274.228 81.0959 274.228C81.8532 274.228 82.5869 274.228 83.2969 274.228C84.0069 274.228 84.6695 274.228 85.2849 274.228C85.4269 274.228 85.5452 274.252 85.6399 274.299C85.7345 274.346 85.8055 274.441 85.8529 274.583C85.9002 274.678 85.9002 274.82 85.8529 275.009C85.5689 276.192 85.1429 277.849 84.5749 279.979C84.0542 282.062 83.4625 284.428 82.7999 287.079C82.1372 289.682 81.4509 292.451 80.7409 295.386C80.0309 298.321 79.2972 301.208 78.5399 304.048C77.8299 306.888 77.1672 309.539 76.5519 312ZM106.244 274.228C107.806 274.228 109.249 274.228 110.575 274.228C111.947 274.228 113.32 274.228 114.693 274.228C116.065 274.228 117.509 274.228 119.024 274.228C119.166 274.228 119.284 274.252 119.379 274.299C119.473 274.346 119.544 274.441 119.592 274.583C119.639 274.678 119.639 274.82 119.592 275.009C119.024 277.281 118.456 279.553 117.888 281.825C117.32 284.05 116.752 286.298 116.184 288.57C115.663 290.842 115.119 293.138 114.551 295.457C113.983 297.729 113.391 300.025 112.776 302.344C112.539 303.196 112.421 303.906 112.421 304.474C112.468 304.995 112.634 305.397 112.918 305.681C113.107 305.918 113.391 306.083 113.77 306.178C114.196 306.273 114.693 306.32 115.261 306.32C115.687 306.32 116.113 306.32 116.539 306.32C116.965 306.32 117.367 306.32 117.746 306.32H118.811C118.621 307.125 118.408 307.953 118.172 308.805C117.982 309.61 117.793 310.438 117.604 311.29C117.556 311.574 117.438 311.763 117.249 311.858C117.059 311.953 116.846 312 116.61 312C116.515 312 116.326 312 116.042 312C115.805 312 115.521 312 115.19 312C114.906 312 114.574 312 114.196 312C112.35 312 110.835 311.763 109.652 311.29C108.468 310.769 107.569 310.059 106.954 309.16C106.386 308.261 106.054 307.219 105.96 306.036C105.865 304.853 105.983 303.598 106.315 302.273C106.835 300.332 107.309 298.439 107.735 296.593C108.208 294.7 108.681 292.83 109.155 290.984C109.628 289.138 110.078 287.292 110.504 285.446C110.977 283.6 111.45 281.754 111.924 279.908H110.646C109.983 279.908 109.391 279.908 108.871 279.908C108.35 279.908 107.829 279.908 107.309 279.908C106.835 279.908 106.267 279.908 105.605 279.908C105.415 279.908 105.25 279.861 105.108 279.766C105.013 279.624 104.989 279.411 105.037 279.127C105.226 278.37 105.415 277.565 105.605 276.713C105.841 275.861 106.054 275.033 106.244 274.228ZM116.113 257.046C116.775 257.046 117.438 257.046 118.101 257.046C118.811 257.046 119.497 257.046 120.16 257.046C120.87 257.046 121.556 257.046 122.219 257.046C122.929 257.046 123.615 257.046 124.278 257.046C124.514 257.046 124.68 257.117 124.775 257.259C124.917 257.401 124.94 257.59 124.846 257.827L123.071 264.785C122.408 264.785 121.722 264.785 121.012 264.785C120.349 264.785 119.663 264.785 118.953 264.785C118.29 264.785 117.604 264.785 116.894 264.785C116.231 264.785 115.568 264.785 114.906 264.785C114.669 264.785 114.503 264.714 114.409 264.572C114.314 264.43 114.29 264.241 114.338 264.004L116.113 257.046ZM129.572 274.228H156.126C156.41 274.228 156.6 274.299 156.694 274.441C156.789 274.583 156.813 274.772 156.765 275.009C156.623 275.624 156.481 276.216 156.339 276.784C156.197 277.305 156.055 277.849 155.913 278.417C155.771 278.985 155.629 279.577 155.487 280.192H128.862C128.768 280.192 128.673 280.192 128.578 280.192C128.484 280.145 128.413 280.097 128.365 280.05C128.318 279.955 128.271 279.861 128.223 279.766C128.223 279.671 128.247 279.553 128.294 279.411C128.436 278.796 128.578 278.228 128.72 277.707C128.862 277.139 129.004 276.571 129.146 276.003C129.336 275.435 129.478 274.843 129.572 274.228ZM149.026 305.894C148.79 306.841 148.553 307.74 148.316 308.592C148.127 309.397 147.914 310.272 147.677 311.219C147.63 311.503 147.512 311.716 147.322 311.858C147.133 311.953 146.92 312 146.683 312C146.447 312 146.139 312 145.76 312C145.429 312 145.05 312 144.624 312C144.198 312 143.772 312 143.346 312C142.92 312 142.471 312 141.997 312C139.773 312 137.808 311.716 136.104 311.148C134.4 310.58 133.051 309.704 132.057 308.521C131.063 307.29 130.448 305.752 130.211 303.906C129.975 302.06 130.188 299.859 130.85 297.303C131.418 294.889 131.986 292.522 132.554 290.203C133.17 287.884 133.761 285.564 134.329 283.245C134.897 280.926 135.465 278.606 136.033 276.287C136.649 273.92 137.264 271.554 137.879 269.187C138.163 268.051 138.447 266.915 138.731 265.779C139.015 264.596 139.299 263.436 139.583 262.3C140.53 262.3 141.477 262.3 142.423 262.3C143.37 262.3 144.317 262.3 145.263 262.3C145.405 262.3 145.524 262.347 145.618 262.442C145.713 262.489 145.784 262.584 145.831 262.726C145.879 262.821 145.879 262.939 145.831 263.081C145.121 265.921 144.411 268.761 143.701 271.601C142.991 274.441 142.258 277.305 141.5 280.192C140.79 283.032 140.08 285.896 139.37 288.783C138.66 291.623 137.927 294.487 137.169 297.374C136.743 299.173 136.53 300.64 136.53 301.776C136.578 302.865 136.909 303.74 137.524 304.403C138.045 304.971 138.779 305.373 139.725 305.61C140.672 305.799 141.855 305.894 143.275 305.894C143.891 305.894 144.411 305.894 144.837 305.894C145.263 305.894 145.689 305.894 146.115 305.894C146.541 305.894 147.062 305.894 147.677 305.894H149.026ZM162.337 274.228C163.899 274.228 165.342 274.228 166.668 274.228C168.04 274.228 169.413 274.228 170.786 274.228C172.158 274.228 173.602 274.228 175.117 274.228C175.259 274.228 175.377 274.252 175.472 274.299C175.566 274.346 175.637 274.441 175.685 274.583C175.732 274.678 175.732 274.82 175.685 275.009C175.117 277.281 174.549 279.553 173.981 281.825C173.413 284.05 172.845 286.298 172.277 288.57C171.756 290.842 171.212 293.138 170.644 295.457C170.076 297.729 169.484 300.025 168.869 302.344C168.632 303.196 168.514 303.906 168.514 304.474C168.561 304.995 168.727 305.397 169.011 305.681C169.2 305.918 169.484 306.083 169.863 306.178C170.289 306.273 170.786 306.32 171.354 306.32C171.78 306.32 172.206 306.32 172.632 306.32C173.058 306.32 173.46 306.32 173.839 306.32H174.904C174.714 307.125 174.501 307.953 174.265 308.805C174.075 309.61 173.886 310.438 173.697 311.29C173.649 311.574 173.531 311.763 173.342 311.858C173.152 311.953 172.939 312 172.703 312C172.608 312 172.419 312 172.135 312C171.898 312 171.614 312 171.283 312C170.999 312 170.667 312 170.289 312C168.443 312 166.928 311.763 165.745 311.29C164.561 310.769 163.662 310.059 163.047 309.16C162.479 308.261 162.147 307.219 162.053 306.036C161.958 304.853 162.076 303.598 162.408 302.273C162.928 300.332 163.402 298.439 163.828 296.593C164.301 294.7 164.774 292.83 165.248 290.984C165.721 289.138 166.171 287.292 166.597 285.446C167.07 283.6 167.543 281.754 168.017 279.908H166.739C166.076 279.908 165.484 279.908 164.964 279.908C164.443 279.908 163.922 279.908 163.402 279.908C162.928 279.908 162.36 279.908 161.698 279.908C161.508 279.908 161.343 279.861 161.201 279.766C161.106 279.624 161.082 279.411 161.13 279.127C161.319 278.37 161.508 277.565 161.698 276.713C161.934 275.861 162.147 275.033 162.337 274.228ZM172.206 257.046C172.868 257.046 173.531 257.046 174.194 257.046C174.904 257.046 175.59 257.046 176.253 257.046C176.963 257.046 177.649 257.046 178.312 257.046C179.022 257.046 179.708 257.046 180.371 257.046C180.607 257.046 180.773 257.117 180.868 257.259C181.01 257.401 181.033 257.59 180.939 257.827L179.164 264.785C178.501 264.785 177.815 264.785 177.105 264.785C176.442 264.785 175.756 264.785 175.046 264.785C174.383 264.785 173.697 264.785 172.987 264.785C172.324 264.785 171.661 264.785 170.999 264.785C170.762 264.785 170.596 264.714 170.502 264.572C170.407 264.43 170.383 264.241 170.431 264.004L172.206 257.046ZM191.206 274.228C191.963 274.228 192.673 274.228 193.336 274.228C193.998 274.228 194.661 274.228 195.324 274.228C195.986 274.228 196.625 274.228 197.241 274.228C197.383 274.228 197.501 274.275 197.596 274.37C197.69 274.417 197.761 274.512 197.809 274.654C197.856 274.749 197.856 274.867 197.809 275.009C197.051 278.086 196.27 281.162 195.466 284.239C194.708 287.316 193.927 290.416 193.123 293.54C192.365 296.617 191.608 299.693 190.851 302.77C190.093 305.847 189.312 308.923 188.508 312C187.845 312 187.182 312 186.52 312C185.904 312 185.242 312 184.532 312C183.869 312 183.206 312 182.544 312C182.449 312 182.354 311.976 182.26 311.929C182.165 311.882 182.094 311.834 182.047 311.787C181.999 311.692 181.952 311.598 181.905 311.503C181.905 311.408 181.928 311.314 181.976 311.219C182.78 307.906 183.609 304.592 184.461 301.279C185.313 297.918 186.141 294.581 186.946 291.268C187.798 287.955 188.626 284.618 189.431 281.257C189.857 279.742 190.212 278.393 190.496 277.21C190.78 275.979 191.016 274.985 191.206 274.228ZM210.518 273.447C212.127 273.447 213.476 273.731 214.565 274.299C215.701 274.82 216.6 275.601 217.263 276.642C217.925 277.636 218.304 278.796 218.399 280.121C218.541 281.399 218.422 282.795 218.044 284.31C217.476 286.535 216.931 288.712 216.411 290.842C215.89 292.972 215.346 295.102 214.778 297.232C214.257 299.315 213.713 301.492 213.145 303.764C213.003 304.285 212.955 304.734 213.003 305.113C213.05 305.492 213.168 305.776 213.358 305.965C213.547 306.107 213.76 306.225 213.997 306.32C214.281 306.367 214.588 306.391 214.92 306.391C215.062 306.391 215.18 306.391 215.275 306.391C215.417 306.391 215.535 306.391 215.63 306.391C215.772 306.391 215.89 306.391 215.985 306.391H217.05C216.86 307.196 216.671 308 216.482 308.805C216.292 309.61 216.103 310.414 215.914 311.219C215.866 311.503 215.748 311.716 215.559 311.858C215.369 311.953 215.156 312 214.92 312C214.683 312 214.281 312 213.713 312C213.145 312 212.648 312 212.222 312C210.518 312 209.169 311.645 208.175 310.935C207.181 310.178 206.542 309.16 206.258 307.882C205.974 306.604 206.045 305.113 206.471 303.409C206.991 301.374 207.488 299.362 207.962 297.374C208.482 295.386 208.979 293.398 209.453 291.41C209.973 289.375 210.494 287.292 211.015 285.162C211.488 283.269 211.393 281.872 210.731 280.973C210.115 280.074 209.098 279.624 207.678 279.624C206.636 279.624 205.571 279.813 204.483 280.192C203.441 280.523 202.329 281.044 201.146 281.754C200.01 282.464 198.779 283.411 197.454 284.594C196.176 285.73 194.803 287.079 193.336 288.641L194.969 280.547H197.596C198.921 279.08 200.27 277.825 201.643 276.784C203.015 275.695 204.435 274.867 205.903 274.299C207.417 273.731 208.956 273.447 210.518 273.447ZM244.073 273.447C245.824 273.447 247.363 273.731 248.688 274.299C250.061 274.867 251.244 275.624 252.238 276.571C253.232 277.518 254.084 278.606 254.794 279.837H256.924L255.149 286.085C253.492 283.671 251.883 281.967 250.321 280.973C248.759 279.979 246.937 279.482 244.854 279.482C243.339 279.482 241.967 279.79 240.736 280.405C239.505 280.973 238.464 281.92 237.612 283.245C236.76 284.523 236.05 286.251 235.482 288.428L233.565 296.167C233.092 297.966 232.926 299.504 233.068 300.782C233.257 302.013 233.683 302.959 234.346 303.622C234.819 304.095 235.411 304.45 236.121 304.687C236.831 304.876 237.636 304.971 238.535 304.971C240.097 304.971 241.612 304.663 243.079 304.048C244.594 303.433 246.108 302.462 247.623 301.137C249.138 299.764 250.723 297.989 252.38 295.812L250.392 304.616H248.404C247.505 305.894 246.44 307.03 245.209 308.024C244.026 308.971 242.677 309.728 241.162 310.296C239.695 310.864 238.085 311.148 236.334 311.148C234.346 311.148 232.618 310.793 231.151 310.083C229.731 309.373 228.595 308.355 227.743 307.03C226.938 305.705 226.441 304.119 226.252 302.273C226.11 300.427 226.323 298.368 226.891 296.096L229.021 287.505C229.684 284.996 230.488 282.843 231.435 281.044C232.382 279.245 233.47 277.802 234.701 276.713C235.979 275.577 237.399 274.749 238.961 274.228C240.523 273.707 242.227 273.447 244.073 273.447ZM257.279 274.228C258.273 274.228 259.243 274.228 260.19 274.228C261.137 274.228 262.083 274.228 263.03 274.228C263.219 274.228 263.361 274.275 263.456 274.37C263.551 274.417 263.598 274.488 263.598 274.583C263.645 274.678 263.645 274.82 263.598 275.009C262.793 278.18 262.012 281.21 261.255 284.097C260.545 286.984 259.835 289.848 259.125 292.688C258.415 295.481 257.681 298.321 256.924 301.208C256.167 304.095 255.386 307.125 254.581 310.296C253.54 314.367 252.096 317.538 250.25 319.81C248.404 322.129 246.085 323.762 243.292 324.709C240.499 325.703 237.257 326.2 233.565 326.2C231.53 326.2 229.684 326.034 228.027 325.703C226.418 325.372 225.092 324.969 224.051 324.496C223.01 324.07 222.323 323.668 221.992 323.289C221.945 323.194 221.921 323.076 221.921 322.934C221.874 322.839 221.874 322.721 221.921 322.579C222.11 321.727 222.3 320.97 222.489 320.307C222.678 319.692 222.915 318.934 223.199 318.035H224.264C225.305 318.603 226.323 319.053 227.317 319.384C228.311 319.763 229.376 320.023 230.512 320.165C231.648 320.307 232.902 320.378 234.275 320.378C236.405 320.378 238.275 320.118 239.884 319.597C241.541 319.076 242.984 318.224 244.215 317.041C244.83 316.426 245.375 315.739 245.848 314.982C246.369 314.272 246.842 313.42 247.268 312.426C247.741 311.479 248.12 310.367 248.404 309.089C249.256 305.823 250.037 302.817 250.747 300.072C251.457 297.279 252.167 294.487 252.877 291.694C253.587 288.901 254.344 285.872 255.149 282.606C255.433 281.659 255.693 280.736 255.93 279.837C256.167 278.89 256.403 277.967 256.64 277.068C256.877 276.121 257.09 275.175 257.279 274.228ZM282.527 306.462C285.699 306.462 288.018 306.012 289.485 305.113C290.953 304.166 291.876 302.959 292.254 301.492C292.491 300.545 292.515 299.717 292.325 299.007C292.136 298.297 291.639 297.682 290.834 297.161C290.03 296.593 288.823 296.12 287.213 295.741L281.817 294.463C279.451 293.942 277.557 293.185 276.137 292.191C274.765 291.15 273.842 289.919 273.368 288.499C272.942 287.032 272.942 285.399 273.368 283.6C273.842 281.849 274.552 280.358 275.498 279.127C276.492 277.849 277.723 276.808 279.19 276.003C280.658 275.151 282.338 274.536 284.231 274.157C286.172 273.778 288.326 273.589 290.692 273.589C292.964 273.589 294.976 273.755 296.727 274.086C298.479 274.417 299.899 274.796 300.987 275.222C302.076 275.648 302.715 275.979 302.904 276.216C302.952 276.263 302.975 276.334 302.975 276.429C303.023 276.524 303.046 276.618 303.046 276.713C303.046 276.76 303.023 276.831 302.975 276.926C302.739 277.873 302.502 278.748 302.265 279.553C302.076 280.358 301.887 281.21 301.697 282.109H300.561C299.52 281.636 298.455 281.233 297.366 280.902C296.325 280.523 295.189 280.239 293.958 280.05C292.728 279.861 291.355 279.766 289.84 279.766C287.947 279.766 286.29 279.932 284.87 280.263C283.45 280.594 282.314 281.115 281.462 281.825C280.658 282.488 280.113 283.316 279.829 284.31C279.593 285.162 279.545 285.919 279.687 286.582C279.877 287.245 280.326 287.836 281.036 288.357C281.746 288.83 282.835 289.256 284.302 289.635L289.982 290.842C292.444 291.315 294.384 292.144 295.804 293.327C297.224 294.463 298.147 295.812 298.573 297.374C299.047 298.889 299.07 300.545 298.644 302.344C297.982 304.758 296.917 306.722 295.449 308.237C294.029 309.752 292.136 310.888 289.769 311.645C287.45 312.355 284.586 312.71 281.178 312.71C279.19 312.71 277.344 312.544 275.64 312.213C273.936 311.929 272.445 311.574 271.167 311.148C269.937 310.722 268.895 310.272 268.043 309.799C267.191 309.278 266.6 308.852 266.268 308.521C266.221 308.426 266.174 308.332 266.126 308.237C266.126 308.142 266.15 308.024 266.197 307.882C266.434 306.746 266.647 305.776 266.836 304.971C267.073 304.119 267.262 303.291 267.404 302.486H268.54C269.487 303.149 270.434 303.74 271.38 304.261C272.374 304.734 273.416 305.137 274.504 305.468C275.64 305.799 276.847 306.06 278.125 306.249C279.451 306.391 280.918 306.462 282.527 306.462ZM333.762 274.228H355.63C355.772 274.228 355.89 274.275 355.985 274.37C356.079 274.417 356.15 274.512 356.198 274.654C356.245 274.749 356.245 274.867 356.198 275.009C355.961 275.956 355.724 276.855 355.488 277.707C355.298 278.512 355.085 279.387 354.849 280.334H333.052C332.91 280.334 332.768 280.31 332.626 280.263C332.531 280.168 332.46 280.074 332.413 279.979C332.413 279.837 332.436 279.695 332.484 279.553C332.673 278.606 332.862 277.731 333.052 276.926C333.288 276.074 333.525 275.175 333.762 274.228ZM337.88 311.219C337.832 311.503 337.714 311.716 337.525 311.858C337.383 311.953 337.17 312 336.886 312C335.892 312 334.921 312 333.975 312C333.075 312 332.129 312 331.135 312C331.419 310.864 331.703 309.704 331.987 308.521C332.318 307.29 332.649 306.06 332.981 304.829C333.691 301.8 334.401 298.865 335.111 296.025C335.868 293.185 336.578 290.392 337.241 287.647C337.903 284.854 338.59 282.109 339.3 279.411C340.01 276.666 340.72 273.873 341.43 271.033C342.045 268.666 342.826 266.655 343.773 264.998C344.719 263.294 345.832 261.921 347.11 260.88C348.435 259.791 349.879 259.01 351.441 258.537C353.003 258.016 354.659 257.756 356.411 257.756C357.736 257.756 358.872 257.827 359.819 257.969C360.813 258.111 361.617 258.3 362.233 258.537C362.848 258.774 363.274 259.01 363.511 259.247C363.605 259.294 363.653 259.389 363.653 259.531C363.653 259.626 363.629 259.744 363.582 259.886C363.392 260.691 363.203 261.472 363.014 262.229C362.824 262.986 362.635 263.791 362.446 264.643H361.31C360.836 264.406 360.316 264.217 359.748 264.075C359.227 263.886 358.635 263.767 357.973 263.72C357.31 263.625 356.529 263.578 355.63 263.578C354.636 263.578 353.736 263.744 352.932 264.075C352.127 264.359 351.417 264.809 350.802 265.424C350.044 266.134 349.405 267.057 348.885 268.193C348.364 269.282 347.914 270.607 347.536 272.169C346.968 274.488 346.352 276.997 345.69 279.695C345.027 282.393 344.341 285.138 343.631 287.931C342.968 290.724 342.282 293.493 341.572 296.238C340.909 298.983 340.27 301.634 339.655 304.19C339.039 306.746 338.448 309.089 337.88 311.219ZM378.82 273.447C381.329 273.447 383.506 273.873 385.352 274.725C387.198 275.53 388.689 276.666 389.825 278.133C391.008 279.6 391.766 281.352 392.097 283.387C392.428 285.375 392.31 287.576 391.742 289.99L389.967 297.161C389.162 300.569 387.932 303.433 386.275 305.752C384.666 308.024 382.607 309.775 380.098 311.006C377.637 312.189 374.702 312.781 371.294 312.781C368.691 312.781 366.419 312.379 364.478 311.574C362.585 310.722 361.046 309.562 359.863 308.095C358.727 306.58 357.97 304.829 357.591 302.841C357.26 300.806 357.402 298.605 358.017 296.238L359.792 288.996C360.691 285.588 361.946 282.748 363.555 280.476C365.212 278.157 367.294 276.405 369.803 275.222C372.359 274.039 375.365 273.447 378.82 273.447ZM377.968 279.127C375.933 279.127 374.134 279.506 372.572 280.263C371.01 281.02 369.708 282.133 368.667 283.6C367.626 285.067 366.821 286.842 366.253 288.925L364.336 296.664C363.957 298.131 363.815 299.622 363.91 301.137C364.005 302.652 364.549 303.93 365.543 304.971C366.158 305.634 366.987 306.154 368.028 306.533C369.069 306.864 370.324 307.03 371.791 307.03C373.874 307.03 375.672 306.651 377.187 305.894C378.702 305.089 379.956 303.953 380.95 302.486C381.991 301.019 382.772 299.267 383.293 297.232L385.281 289.564C385.707 288.049 385.849 286.535 385.707 285.02C385.612 283.458 385.044 282.156 384.003 281.115C383.388 280.5 382.583 280.026 381.589 279.695C380.642 279.316 379.435 279.127 377.968 279.127ZM411.949 280.547H414.292C415.192 278.985 416.162 277.683 417.203 276.642C418.245 275.553 419.404 274.772 420.682 274.299C421.96 273.778 423.357 273.518 424.871 273.518C426.007 273.518 426.93 273.636 427.64 273.873C428.35 274.11 428.824 274.346 429.06 274.583C429.155 274.678 429.226 274.796 429.273 274.938C429.368 275.033 429.392 275.151 429.344 275.293C429.202 275.766 429.06 276.24 428.918 276.713C428.824 277.186 428.705 277.636 428.563 278.062C428.469 278.488 428.35 278.938 428.208 279.411C428.114 279.884 427.995 280.381 427.853 280.902H426.717C426.244 280.713 425.7 280.547 425.084 280.405C424.469 280.216 423.664 280.121 422.67 280.121C421.156 280.121 419.712 280.405 418.339 280.973C417.014 281.541 415.641 282.559 414.221 284.026C412.801 285.446 411.263 287.41 409.606 289.919L411.949 280.547ZM405.204 312C404.542 312 403.832 312 403.074 312C402.364 312 401.631 312 400.873 312C400.163 312 399.477 312 398.814 312C398.72 312 398.625 312 398.53 312C398.436 311.953 398.365 311.905 398.317 311.858C398.27 311.763 398.223 311.669 398.175 311.574C398.175 311.479 398.199 311.361 398.246 311.219C398.341 310.935 398.578 310.059 398.956 308.592C399.335 307.077 399.785 305.208 400.305 302.983C400.873 300.711 401.465 298.297 402.08 295.741C402.743 293.138 403.382 290.582 403.997 288.073C404.66 285.517 405.252 283.245 405.772 281.257C406.151 279.742 406.482 278.393 406.766 277.21C407.098 275.979 407.334 274.985 407.476 274.228C408.234 274.228 408.991 274.228 409.748 274.228C410.506 274.228 411.239 274.228 411.949 274.228C412.659 274.228 413.322 274.228 413.937 274.228C414.079 274.228 414.198 274.252 414.292 274.299C414.387 274.346 414.458 274.441 414.505 274.583C414.553 274.678 414.553 274.82 414.505 275.009C414.221 276.192 413.795 277.849 413.227 279.979C412.707 282.062 412.115 284.428 411.452 287.079C410.79 289.682 410.103 292.451 409.393 295.386C408.683 298.321 407.95 301.208 407.192 304.048C406.482 306.888 405.82 309.539 405.204 312ZM490.12 295.67C489.458 298.415 488.487 300.806 487.209 302.841C485.931 304.876 484.369 306.58 482.523 307.953C480.677 309.326 478.524 310.343 476.062 311.006C473.601 311.669 470.856 312 467.826 312C466.69 312 465.483 312 464.205 312C462.975 312 461.72 312 460.442 312C459.212 312 458.028 312 456.892 312C455.804 312 454.81 312 453.91 312C453.011 312 452.301 312 451.78 312C451.591 312 451.425 311.953 451.283 311.858C451.189 311.716 451.165 311.503 451.212 311.219C452.112 307.622 453.011 303.977 453.91 300.285C454.857 296.593 455.78 292.877 456.679 289.138C457.626 285.351 458.573 281.565 459.519 277.778C460.466 273.991 461.436 270.181 462.43 266.347L469.53 266.418L468.749 267.412C468.513 268.453 468.276 269.471 468.039 270.465C467.85 271.459 467.637 272.453 467.4 273.447C466.738 276.192 466.051 278.914 465.341 281.612C464.679 284.31 464.016 287.032 463.353 289.777C462.691 292.475 462.028 295.173 461.365 297.871C460.703 300.522 460.016 303.22 459.306 305.965C460.111 305.965 461.01 305.965 462.004 305.965C463.046 305.965 464.134 305.965 465.27 305.965C466.406 305.965 467.542 305.965 468.678 305.965C471.471 305.965 473.861 305.61 475.849 304.9C477.885 304.19 479.541 303.078 480.819 301.563C482.097 300.048 483.044 298.06 483.659 295.599L487.422 280.334C487.848 278.725 488.085 277.305 488.132 276.074C488.18 274.796 488.061 273.707 487.777 272.808C487.493 271.861 487.02 271.08 486.357 270.465C485.884 269.897 485.198 269.471 484.298 269.187C483.446 268.856 482.405 268.619 481.174 268.477C479.991 268.288 478.595 268.193 476.985 268.193C475.613 268.193 474.122 268.193 472.512 268.193C470.95 268.193 469.341 268.193 467.684 268.193C466.075 268.193 464.489 268.193 462.927 268.193C461.365 268.193 459.898 268.193 458.525 268.193C458.383 268.193 458.241 268.169 458.099 268.122C458.005 268.075 457.934 267.98 457.886 267.838C457.886 267.696 457.91 267.554 457.957 267.412C458.147 266.513 458.336 265.661 458.525 264.856C458.762 264.051 458.975 263.199 459.164 262.3C460.632 262.3 462.17 262.3 463.779 262.3C465.436 262.3 467.14 262.3 468.891 262.3C470.69 262.3 472.489 262.3 474.287 262.3C476.133 262.3 477.956 262.3 479.754 262.3C482.5 262.3 484.914 262.679 486.996 263.436C489.079 264.146 490.759 265.282 492.037 266.844C493.315 268.406 494.12 270.418 494.451 272.879C494.783 275.34 494.499 278.322 493.599 281.825L490.12 295.67ZM521.601 273.447C524.015 273.447 526.098 273.802 527.849 274.512C529.648 275.222 531.091 276.169 532.18 277.352C533.316 278.535 534.05 279.932 534.381 281.541C534.712 283.103 534.641 284.76 534.168 286.511L533.884 287.576C533.363 289.659 532.464 291.386 531.186 292.759C529.908 294.132 528.299 295.149 526.358 295.812C524.465 296.475 522.24 296.806 519.684 296.806C518.643 296.806 517.365 296.806 515.85 296.806C514.383 296.806 512.773 296.806 511.022 296.806C509.271 296.806 507.496 296.806 505.697 296.806L502.999 297.161L503.922 292.262C505.91 292.262 507.803 292.262 509.602 292.262C511.448 292.262 513.199 292.262 514.856 292.262C516.56 292.262 518.169 292.262 519.684 292.262C521.861 292.262 523.636 291.836 525.009 290.984C526.429 290.085 527.352 288.712 527.778 286.866C528.109 285.588 528.18 284.428 527.991 283.387C527.802 282.346 527.352 281.494 526.642 280.831C526.074 280.216 525.293 279.742 524.299 279.411C523.305 279.08 522.074 278.914 520.607 278.914C518.619 278.914 516.82 279.269 515.211 279.979C513.649 280.689 512.276 281.801 511.093 283.316C509.957 284.831 509.081 286.842 508.466 289.351L506.549 297.09C506.076 298.841 505.934 300.356 506.123 301.634C506.312 302.912 506.786 303.953 507.543 304.758C508.3 305.61 509.342 306.225 510.667 306.604C511.992 306.983 513.625 307.172 515.566 307.172C517.317 307.172 518.879 307.077 520.252 306.888C521.625 306.699 522.903 306.415 524.086 306.036C525.317 305.657 526.618 305.184 527.991 304.616H529.056C528.867 305.326 528.654 306.107 528.417 306.959C528.18 307.764 527.967 308.545 527.778 309.302C527.731 309.397 527.683 309.491 527.636 309.586C527.589 309.681 527.518 309.775 527.423 309.87C526.902 310.391 526.05 310.888 524.867 311.361C523.684 311.787 522.24 312.118 520.536 312.355C518.879 312.639 517.057 312.781 515.069 312.781C512.229 312.781 509.744 312.426 507.614 311.716C505.484 310.959 503.756 309.87 502.431 308.45C501.106 307.03 500.254 305.302 499.875 303.267C499.496 301.232 499.615 298.912 500.23 296.309L502.147 288.854C502.857 286.061 503.851 283.695 505.129 281.754C506.407 279.766 507.898 278.18 509.602 276.997C511.353 275.766 513.247 274.867 515.282 274.299C517.317 273.731 519.424 273.447 521.601 273.447ZM544.681 274.228C546.575 274.228 548.444 274.228 550.29 274.228C552.184 274.228 554.053 274.228 555.899 274.228C556.089 274.228 556.231 274.275 556.325 274.37C556.42 274.417 556.467 274.488 556.467 274.583C556.515 274.678 556.515 274.82 556.467 275.009C555.71 278.086 554.953 281.162 554.195 284.239C553.438 287.268 552.657 290.321 551.852 293.398C551.095 296.475 550.338 299.551 549.58 302.628C549.486 303.007 549.367 303.409 549.225 303.835C549.131 304.214 549.036 304.616 548.941 305.042C548.847 305.421 548.752 305.823 548.657 306.249C549.036 306.391 549.486 306.509 550.006 306.604C550.527 306.651 551.19 306.675 551.994 306.675C554.598 306.675 556.941 306.225 559.023 305.326C561.106 304.427 562.881 303.054 564.348 301.208C565.816 299.362 566.904 297.043 567.614 294.25L568.608 290.416C569.129 288.333 569.437 286.44 569.531 284.736C569.626 283.032 569.484 281.423 569.105 279.908C568.727 278.346 568.111 276.831 567.259 275.364L567.543 274.228C568.395 274.228 569.247 274.228 570.099 274.228C570.951 274.228 571.827 274.228 572.726 274.228C572.963 274.228 573.129 274.252 573.223 274.299C573.365 274.346 573.484 274.441 573.578 274.583C574.241 275.34 574.785 276.547 575.211 278.204C575.637 279.813 575.874 281.683 575.921 283.813C576.016 285.943 575.779 288.144 575.211 290.416L574.217 294.25C573.365 297.469 572.206 300.238 570.738 302.557C569.271 304.876 567.543 306.793 565.555 308.308C563.567 309.775 561.39 310.864 559.023 311.574C556.704 312.284 554.243 312.639 551.639 312.639C548.752 312.639 546.433 312.355 544.681 311.787C542.93 311.172 541.865 310.698 541.486 310.367C541.344 310.225 541.273 310.107 541.273 310.012C541.273 309.87 541.297 309.681 541.344 309.444C541.96 306.983 542.575 304.521 543.19 302.06C543.806 299.599 544.421 297.161 545.036 294.747C545.652 292.333 546.267 289.895 546.882 287.434C547.498 284.973 548.113 282.511 548.728 280.05H547.592C546.977 280.05 546.362 280.05 545.746 280.05C545.178 280.05 544.61 280.05 544.042 280.05C543.806 280.05 543.64 279.979 543.545 279.837C543.451 279.695 543.427 279.506 543.474 279.269C543.616 278.606 543.806 277.825 544.042 276.926C544.279 275.979 544.492 275.08 544.681 274.228ZM603.972 273.447C606.386 273.447 608.469 273.802 610.22 274.512C612.019 275.222 613.462 276.169 614.551 277.352C615.687 278.535 616.421 279.932 616.752 281.541C617.083 283.103 617.012 284.76 616.539 286.511L616.255 287.576C615.734 289.659 614.835 291.386 613.557 292.759C612.279 294.132 610.67 295.149 608.729 295.812C606.836 296.475 604.611 296.806 602.055 296.806C601.014 296.806 599.736 296.806 598.221 296.806C596.754 296.806 595.144 296.806 593.393 296.806C591.642 296.806 589.867 296.806 588.068 296.806L585.37 297.161L586.293 292.262C588.281 292.262 590.174 292.262 591.973 292.262C593.819 292.262 595.57 292.262 597.227 292.262C598.931 292.262 600.54 292.262 602.055 292.262C604.232 292.262 606.007 291.836 607.38 290.984C608.8 290.085 609.723 288.712 610.149 286.866C610.48 285.588 610.551 284.428 610.362 283.387C610.173 282.346 609.723 281.494 609.013 280.831C608.445 280.216 607.664 279.742 606.67 279.411C605.676 279.08 604.445 278.914 602.978 278.914C600.99 278.914 599.191 279.269 597.582 279.979C596.02 280.689 594.647 281.801 593.464 283.316C592.328 284.831 591.452 286.842 590.837 289.351L588.92 297.09C588.447 298.841 588.305 300.356 588.494 301.634C588.683 302.912 589.157 303.953 589.914 304.758C590.671 305.61 591.713 306.225 593.038 306.604C594.363 306.983 595.996 307.172 597.937 307.172C599.688 307.172 601.25 307.077 602.623 306.888C603.996 306.699 605.274 306.415 606.457 306.036C607.688 305.657 608.989 305.184 610.362 304.616H611.427C611.238 305.326 611.025 306.107 610.788 306.959C610.551 307.764 610.338 308.545 610.149 309.302C610.102 309.397 610.054 309.491 610.007 309.586C609.96 309.681 609.889 309.775 609.794 309.87C609.273 310.391 608.421 310.888 607.238 311.361C606.055 311.787 604.611 312.118 602.907 312.355C601.25 312.639 599.428 312.781 597.44 312.781C594.6 312.781 592.115 312.426 589.985 311.716C587.855 310.959 586.127 309.87 584.802 308.45C583.477 307.03 582.625 305.302 582.246 303.267C581.867 301.232 581.986 298.912 582.601 296.309L584.518 288.854C585.228 286.061 586.222 283.695 587.5 281.754C588.778 279.766 590.269 278.18 591.973 276.997C593.724 275.766 595.618 274.867 597.653 274.299C599.688 273.731 601.795 273.447 603.972 273.447ZM634.758 266.56C635.042 265.329 635.35 264.051 635.681 262.726C636.06 261.353 636.415 260.028 636.746 258.75C637.125 258.75 637.504 258.75 637.882 258.75C638.261 258.75 638.64 258.75 639.018 258.75C639.397 258.75 639.776 258.75 640.154 258.75C640.533 258.75 640.912 258.75 641.29 258.75C641.669 258.75 642.048 258.75 642.426 258.75C642.616 258.75 642.758 258.797 642.852 258.892C642.947 258.939 642.994 259.01 642.994 259.105C643.042 259.2 643.042 259.342 642.994 259.531C642.332 262.324 641.645 265.14 640.935 267.98C640.225 270.773 639.515 273.565 638.805 276.358C638.143 279.151 637.433 281.967 636.675 284.807C635.965 287.647 635.255 290.463 634.545 293.256C633.883 296.049 633.196 298.841 632.486 301.634C632.297 302.439 632.202 303.125 632.202 303.693C632.25 304.214 632.368 304.64 632.557 304.971C632.841 305.302 633.22 305.539 633.693 305.681C634.167 305.823 634.758 305.894 635.468 305.894C635.658 305.894 635.847 305.894 636.036 305.894C636.226 305.894 636.415 305.894 636.604 305.894C636.841 305.894 637.054 305.894 637.243 305.894C637.433 305.894 637.622 305.894 637.811 305.894H638.947C638.711 306.793 638.474 307.693 638.237 308.592C638.001 309.444 637.788 310.32 637.598 311.219C637.551 311.503 637.409 311.716 637.172 311.858C636.983 311.953 636.794 312 636.604 312C636.368 312 636.107 312 635.823 312C635.539 312 635.232 312 634.9 312C634.616 312 634.332 312 634.048 312C633.812 312 633.575 312 633.338 312C631.871 312 630.569 311.811 629.433 311.432C628.297 311.053 627.374 310.462 626.664 309.657C626.002 308.852 625.599 307.835 625.457 306.604C625.315 305.326 625.457 303.788 625.883 301.989C626.641 299.054 627.374 296.12 628.084 293.185C628.842 290.25 629.575 287.292 630.285 284.31C631.043 281.328 631.776 278.37 632.486 275.435C633.244 272.5 634.001 269.542 634.758 266.56ZM670.586 273.447C673.094 273.447 675.272 273.873 677.118 274.725C678.964 275.53 680.455 276.666 681.591 278.133C682.774 279.6 683.531 281.352 683.863 283.387C684.194 285.375 684.076 287.576 683.508 289.99L681.733 297.161C680.928 300.569 679.697 303.433 678.041 305.752C676.431 308.024 674.372 309.775 671.864 311.006C669.402 312.189 666.468 312.781 663.06 312.781C660.456 312.781 658.184 312.379 656.244 311.574C654.35 310.722 652.812 309.562 651.629 308.095C650.493 306.58 649.735 304.829 649.357 302.841C649.025 300.806 649.167 298.605 649.783 296.238L651.558 288.996C652.457 285.588 653.711 282.748 655.321 280.476C656.977 278.157 659.06 276.405 661.569 275.222C664.125 274.039 667.13 273.447 670.586 273.447ZM669.734 279.127C667.698 279.127 665.9 279.506 664.338 280.263C662.776 281.02 661.474 282.133 660.433 283.6C659.391 285.067 658.587 286.842 658.019 288.925L656.102 296.664C655.723 298.131 655.581 299.622 655.676 301.137C655.77 302.652 656.315 303.93 657.309 304.971C657.924 305.634 658.752 306.154 659.794 306.533C660.835 306.864 662.089 307.03 663.557 307.03C665.639 307.03 667.438 306.651 668.953 305.894C670.467 305.089 671.722 303.953 672.716 302.486C673.757 301.019 674.538 299.267 675.059 297.232L677.047 289.564C677.473 288.049 677.615 286.535 677.473 285.02C677.378 283.458 676.81 282.156 675.769 281.115C675.153 280.5 674.349 280.026 673.355 279.695C672.408 279.316 671.201 279.127 669.734 279.127ZM699.384 274.228C700.047 274.228 700.686 274.228 701.301 274.228C701.964 274.228 702.626 274.228 703.289 274.228C703.952 274.228 704.591 274.228 705.206 274.228C705.395 274.228 705.537 274.275 705.632 274.37C705.727 274.417 705.774 274.512 705.774 274.654C705.821 274.749 705.821 274.867 705.774 275.009C704.733 279.269 703.668 283.529 702.579 287.789C701.49 292.049 700.402 296.333 699.313 300.64C698.272 304.9 697.207 309.16 696.118 313.42C695.077 317.68 694.012 321.94 692.923 326.2C692.26 326.2 691.598 326.2 690.935 326.2C690.32 326.2 689.681 326.2 689.018 326.2C688.355 326.2 687.693 326.2 687.03 326.2C686.888 326.2 686.77 326.153 686.675 326.058C686.58 326.011 686.509 325.916 686.462 325.774C686.415 325.679 686.415 325.537 686.462 325.348C687.409 321.703 688.332 318.035 689.231 314.343C690.178 310.698 691.101 307.054 692 303.409C692.947 299.717 693.87 296.049 694.769 292.404C695.716 288.712 696.662 285.044 697.609 281.399C697.893 280.168 698.177 278.961 698.461 277.778C698.745 276.595 699.053 275.411 699.384 274.228ZM717.205 273.447C719.998 273.447 722.222 274.11 723.879 275.435C725.583 276.76 726.695 278.583 727.216 280.902C727.737 283.221 727.618 285.848 726.861 288.783L724.518 298.226C723.903 300.829 723.098 303.054 722.104 304.9C721.157 306.746 720.045 308.237 718.767 309.373C717.536 310.509 716.14 311.361 714.578 311.929C713.016 312.45 711.359 312.71 709.608 312.71C707.809 312.71 706.224 312.45 704.851 311.929C703.478 311.408 702.295 310.698 701.301 309.799C700.354 308.852 699.55 307.764 698.887 306.533H696.97L698.532 300.072C700.141 302.486 701.703 304.214 703.218 305.255C704.733 306.249 706.531 306.746 708.614 306.746C710.176 306.746 711.549 306.438 712.732 305.823C713.915 305.208 714.957 304.237 715.856 302.912C716.755 301.587 717.465 299.883 717.986 297.8L720.329 288.428C720.802 286.582 720.944 285.044 720.755 283.813C720.613 282.582 720.187 281.636 719.477 280.973C719.004 280.5 718.388 280.145 717.631 279.908C716.921 279.671 716.045 279.553 715.004 279.553C713.631 279.553 712.211 279.884 710.744 280.547C709.324 281.162 707.833 282.156 706.271 283.529C704.756 284.854 703.147 286.653 701.443 288.925L703.715 280.05H705.632C706.673 278.772 707.762 277.636 708.898 276.642C710.081 275.648 711.359 274.867 712.732 274.299C714.152 273.731 715.643 273.447 717.205 273.447ZM756.511 273.447C758.925 273.447 761.008 273.802 762.759 274.512C764.558 275.222 766.001 276.169 767.09 277.352C768.226 278.535 768.96 279.932 769.291 281.541C769.622 283.103 769.551 284.76 769.078 286.511L768.794 287.576C768.273 289.659 767.374 291.386 766.096 292.759C764.818 294.132 763.209 295.149 761.268 295.812C759.375 296.475 757.15 296.806 754.594 296.806C753.553 296.806 752.275 296.806 750.76 296.806C749.293 296.806 747.683 296.806 745.932 296.806C744.181 296.806 742.406 296.806 740.607 296.806L737.909 297.161L738.832 292.262C740.82 292.262 742.713 292.262 744.512 292.262C746.358 292.262 748.109 292.262 749.766 292.262C751.47 292.262 753.079 292.262 754.594 292.262C756.771 292.262 758.546 291.836 759.919 290.984C761.339 290.085 762.262 288.712 762.688 286.866C763.019 285.588 763.09 284.428 762.901 283.387C762.712 282.346 762.262 281.494 761.552 280.831C760.984 280.216 760.203 279.742 759.209 279.411C758.215 279.08 756.984 278.914 755.517 278.914C753.529 278.914 751.73 279.269 750.121 279.979C748.559 280.689 747.186 281.801 746.003 283.316C744.867 284.831 743.991 286.842 743.376 289.351L741.459 297.09C740.986 298.841 740.844 300.356 741.033 301.634C741.222 302.912 741.696 303.953 742.453 304.758C743.21 305.61 744.252 306.225 745.577 306.604C746.902 306.983 748.535 307.172 750.476 307.172C752.227 307.172 753.789 307.077 755.162 306.888C756.535 306.699 757.813 306.415 758.996 306.036C760.227 305.657 761.528 305.184 762.901 304.616H763.966C763.777 305.326 763.564 306.107 763.327 306.959C763.09 307.764 762.877 308.545 762.688 309.302C762.641 309.397 762.593 309.491 762.546 309.586C762.499 309.681 762.428 309.775 762.333 309.87C761.812 310.391 760.96 310.888 759.777 311.361C758.594 311.787 757.15 312.118 755.446 312.355C753.789 312.639 751.967 312.781 749.979 312.781C747.139 312.781 744.654 312.426 742.524 311.716C740.394 310.959 738.666 309.87 737.341 308.45C736.016 307.03 735.164 305.302 734.785 303.267C734.406 301.232 734.525 298.912 735.14 296.309L737.057 288.854C737.767 286.061 738.761 283.695 740.039 281.754C741.317 279.766 742.808 278.18 744.512 276.997C746.263 275.766 748.157 274.867 750.192 274.299C752.227 273.731 754.334 273.447 756.511 273.447ZM788.859 280.547H791.202C792.102 278.985 793.072 277.683 794.113 276.642C795.155 275.553 796.314 274.772 797.592 274.299C798.87 273.778 800.267 273.518 801.781 273.518C802.917 273.518 803.84 273.636 804.55 273.873C805.26 274.11 805.734 274.346 805.97 274.583C806.065 274.678 806.136 274.796 806.183 274.938C806.278 275.033 806.302 275.151 806.254 275.293C806.112 275.766 805.97 276.24 805.828 276.713C805.734 277.186 805.615 277.636 805.473 278.062C805.379 278.488 805.26 278.938 805.118 279.411C805.024 279.884 804.905 280.381 804.763 280.902H803.627C803.154 280.713 802.61 280.547 801.994 280.405C801.379 280.216 800.574 280.121 799.58 280.121C798.066 280.121 796.622 280.405 795.249 280.973C793.924 281.541 792.551 282.559 791.131 284.026C789.711 285.446 788.173 287.41 786.516 289.919L788.859 280.547ZM782.114 312C781.452 312 780.742 312 779.984 312C779.274 312 778.541 312 777.783 312C777.073 312 776.387 312 775.724 312C775.63 312 775.535 312 775.44 312C775.346 311.953 775.275 311.905 775.227 311.858C775.18 311.763 775.133 311.669 775.085 311.574C775.085 311.479 775.109 311.361 775.156 311.219C775.251 310.935 775.488 310.059 775.866 308.592C776.245 307.077 776.695 305.208 777.215 302.983C777.783 300.711 778.375 298.297 778.99 295.741C779.653 293.138 780.292 290.582 780.907 288.073C781.57 285.517 782.162 283.245 782.682 281.257C783.061 279.742 783.392 278.393 783.676 277.21C784.008 275.979 784.244 274.985 784.386 274.228C785.144 274.228 785.901 274.228 786.658 274.228C787.416 274.228 788.149 274.228 788.859 274.228C789.569 274.228 790.232 274.228 790.847 274.228C790.989 274.228 791.108 274.252 791.202 274.299C791.297 274.346 791.368 274.441 791.415 274.583C791.463 274.678 791.463 274.82 791.415 275.009C791.131 276.192 790.705 277.849 790.137 279.979C789.617 282.062 789.025 284.428 788.362 287.079C787.7 289.682 787.013 292.451 786.303 295.386C785.593 298.321 784.86 301.208 784.102 304.048C783.392 306.888 782.73 309.539 782.114 312ZM821.337 306.462C824.508 306.462 826.828 306.012 828.295 305.113C829.762 304.166 830.685 302.959 831.064 301.492C831.301 300.545 831.324 299.717 831.135 299.007C830.946 298.297 830.449 297.682 829.644 297.161C828.839 296.593 827.632 296.12 826.023 295.741L820.627 294.463C818.26 293.942 816.367 293.185 814.947 292.191C813.574 291.15 812.651 289.919 812.178 288.499C811.752 287.032 811.752 285.399 812.178 283.6C812.651 281.849 813.361 280.358 814.308 279.127C815.302 277.849 816.533 276.808 818 276.003C819.467 275.151 821.148 274.536 823.041 274.157C824.982 273.778 827.135 273.589 829.502 273.589C831.774 273.589 833.786 273.755 835.537 274.086C837.288 274.417 838.708 274.796 839.797 275.222C840.886 275.648 841.525 275.979 841.714 276.216C841.761 276.263 841.785 276.334 841.785 276.429C841.832 276.524 841.856 276.618 841.856 276.713C841.856 276.76 841.832 276.831 841.785 276.926C841.548 277.873 841.312 278.748 841.075 279.553C840.886 280.358 840.696 281.21 840.507 282.109H839.371C838.33 281.636 837.265 281.233 836.176 280.902C835.135 280.523 833.999 280.239 832.768 280.05C831.537 279.861 830.165 279.766 828.65 279.766C826.757 279.766 825.1 279.932 823.68 280.263C822.26 280.594 821.124 281.115 820.272 281.825C819.467 282.488 818.923 283.316 818.639 284.31C818.402 285.162 818.355 285.919 818.497 286.582C818.686 287.245 819.136 287.836 819.846 288.357C820.556 288.83 821.645 289.256 823.112 289.635L828.792 290.842C831.253 291.315 833.194 292.144 834.614 293.327C836.034 294.463 836.957 295.812 837.383 297.374C837.856 298.889 837.88 300.545 837.454 302.344C836.791 304.758 835.726 306.722 834.259 308.237C832.839 309.752 830.946 310.888 828.579 311.645C826.26 312.355 823.396 312.71 819.988 312.71C818 312.71 816.154 312.544 814.45 312.213C812.746 311.929 811.255 311.574 809.977 311.148C808.746 310.722 807.705 310.272 806.853 309.799C806.001 309.278 805.409 308.852 805.078 308.521C805.031 308.426 804.983 308.332 804.936 308.237C804.936 308.142 804.96 308.024 805.007 307.882C805.244 306.746 805.457 305.776 805.646 304.971C805.883 304.119 806.072 303.291 806.214 302.486H807.35C808.297 303.149 809.243 303.74 810.19 304.261C811.184 304.734 812.225 305.137 813.314 305.468C814.45 305.799 815.657 306.06 816.935 306.249C818.26 306.391 819.728 306.462 821.337 306.462Z" fill="#FF7575"/>
<path d="M67.247 368.879C67.247 366.907 67.6917 365.138 68.581 363.572C69.4703 361.987 70.6787 360.749 72.206 359.86C73.7527 358.971 75.4637 358.526 77.339 358.526C79.543 358.526 81.4667 359.058 83.11 360.121C84.7533 361.184 85.952 362.692 86.706 364.645H83.545C82.9843 363.427 82.1723 362.489 81.109 361.832C80.065 361.175 78.8083 360.846 77.339 360.846C75.9277 360.846 74.6613 361.175 73.54 361.832C72.4187 362.489 71.539 363.427 70.901 364.645C70.263 365.844 69.944 367.255 69.944 368.879C69.944 370.484 70.263 371.895 70.901 373.113C71.539 374.312 72.4187 375.24 73.54 375.897C74.6613 376.554 75.9277 376.883 77.339 376.883C78.8083 376.883 80.065 376.564 81.109 375.926C82.1723 375.269 82.9843 374.331 83.545 373.113H86.706C85.952 375.046 84.7533 376.545 83.11 377.608C81.4667 378.652 79.543 379.174 77.339 379.174C75.4637 379.174 73.7527 378.739 72.206 377.869C70.6787 376.98 69.4703 375.752 68.581 374.186C67.6917 372.62 67.247 370.851 67.247 368.879ZM104.728 363.108V379H102.089V376.651C101.587 377.463 100.881 378.101 99.9724 378.565C99.083 379.01 98.097 379.232 97.0144 379.232C95.777 379.232 94.6654 378.981 93.6794 378.478C92.6934 377.956 91.9104 377.183 91.3304 376.158C90.7697 375.133 90.4894 373.886 90.4894 372.417V363.108H93.0994V372.069C93.0994 373.635 93.4957 374.843 94.2884 375.694C95.081 376.525 96.1637 376.941 97.5364 376.941C98.9477 376.941 100.059 376.506 100.871 375.636C101.683 374.766 102.089 373.5 102.089 371.837V363.108H104.728ZM111.823 365.689C112.287 364.78 112.945 364.075 113.795 363.572C114.665 363.069 115.719 362.818 116.956 362.818V365.544H116.26C113.302 365.544 111.823 367.149 111.823 370.358V379H109.184V363.108H111.823V365.689ZM119.017 370.996C119.017 369.372 119.345 367.951 120.003 366.733C120.66 365.496 121.559 364.539 122.7 363.862C123.86 363.185 125.145 362.847 126.557 362.847C127.949 362.847 129.157 363.147 130.182 363.746C131.206 364.345 131.97 365.099 132.473 366.008V363.108H135.141V379H132.473V376.042C131.951 376.97 131.168 377.743 130.124 378.362C129.099 378.961 127.9 379.261 126.528 379.261C125.116 379.261 123.84 378.913 122.7 378.217C121.559 377.521 120.66 376.545 120.003 375.288C119.345 374.031 119.017 372.601 119.017 370.996ZM132.473 371.025C132.473 369.826 132.231 368.782 131.748 367.893C131.264 367.004 130.607 366.327 129.776 365.863C128.964 365.38 128.065 365.138 127.079 365.138C126.093 365.138 125.194 365.37 124.382 365.834C123.57 366.298 122.922 366.975 122.439 367.864C121.955 368.753 121.714 369.797 121.714 370.996C121.714 372.214 121.955 373.277 122.439 374.186C122.922 375.075 123.57 375.762 124.382 376.245C125.194 376.709 126.093 376.941 127.079 376.941C128.065 376.941 128.964 376.709 129.776 376.245C130.607 375.762 131.264 375.075 131.748 374.186C132.231 373.277 132.473 372.224 132.473 371.025ZM142.819 365.283V374.65C142.819 375.423 142.984 375.974 143.312 376.303C143.641 376.612 144.211 376.767 145.023 376.767H146.966V379H144.588C143.119 379 142.017 378.662 141.282 377.985C140.548 377.308 140.18 376.197 140.18 374.65V365.283H138.121V363.108H140.18V359.106H142.819V363.108H146.966V365.283H142.819ZM164.664 370.445C164.664 370.948 164.635 371.479 164.577 372.04H151.875C151.971 373.606 152.503 374.834 153.47 375.723C154.456 376.593 155.645 377.028 157.037 377.028C158.177 377.028 159.125 376.767 159.879 376.245C160.652 375.704 161.193 374.988 161.503 374.099H164.345C163.919 375.626 163.069 376.873 161.793 377.84C160.517 378.787 158.931 379.261 157.037 379.261C155.529 379.261 154.175 378.923 152.977 378.246C151.797 377.569 150.869 376.612 150.193 375.375C149.516 374.118 149.178 372.668 149.178 371.025C149.178 369.382 149.506 367.941 150.164 366.704C150.821 365.467 151.739 364.519 152.919 363.862C154.117 363.185 155.49 362.847 157.037 362.847C158.545 362.847 159.879 363.176 161.039 363.833C162.199 364.49 163.088 365.399 163.707 366.559C164.345 367.7 164.664 368.995 164.664 370.445ZM161.938 369.894C161.938 368.889 161.715 368.028 161.271 367.313C160.826 366.578 160.217 366.027 159.444 365.66C158.69 365.273 157.849 365.08 156.921 365.08C155.587 365.08 154.446 365.505 153.499 366.356C152.571 367.207 152.039 368.386 151.904 369.894H161.938ZM167.161 370.996C167.161 369.372 167.49 367.951 168.147 366.733C168.804 365.496 169.703 364.539 170.844 363.862C172.004 363.185 173.299 362.847 174.73 362.847C175.967 362.847 177.118 363.137 178.181 363.717C179.244 364.278 180.056 365.022 180.617 365.95V357.54H183.285V379H180.617V376.013C180.095 376.96 179.322 377.743 178.297 378.362C177.272 378.961 176.074 379.261 174.701 379.261C173.29 379.261 172.004 378.913 170.844 378.217C169.703 377.521 168.804 376.545 168.147 375.288C167.49 374.031 167.161 372.601 167.161 370.996ZM180.617 371.025C180.617 369.826 180.375 368.782 179.892 367.893C179.409 367.004 178.751 366.327 177.92 365.863C177.108 365.38 176.209 365.138 175.223 365.138C174.237 365.138 173.338 365.37 172.526 365.834C171.714 366.298 171.066 366.975 170.583 367.864C170.1 368.753 169.858 369.797 169.858 370.996C169.858 372.214 170.1 373.277 170.583 374.186C171.066 375.075 171.714 375.762 172.526 376.245C173.338 376.709 174.237 376.941 175.223 376.941C176.209 376.941 177.108 376.709 177.92 376.245C178.751 375.762 179.409 375.075 179.892 374.186C180.375 373.277 180.617 372.224 180.617 371.025ZM194.49 371.025C194.49 369.382 194.819 367.951 195.476 366.733C196.133 365.496 197.042 364.539 198.202 363.862C199.381 363.185 200.725 362.847 202.233 362.847C204.186 362.847 205.79 363.321 207.047 364.268C208.323 365.215 209.164 366.53 209.57 368.212H206.728C206.457 367.245 205.926 366.482 205.133 365.921C204.36 365.36 203.393 365.08 202.233 365.08C200.725 365.08 199.507 365.602 198.579 366.646C197.651 367.671 197.187 369.13 197.187 371.025C197.187 372.939 197.651 374.418 198.579 375.462C199.507 376.506 200.725 377.028 202.233 377.028C203.393 377.028 204.36 376.757 205.133 376.216C205.906 375.675 206.438 374.901 206.728 373.896H209.57C209.145 375.52 208.294 376.825 207.018 377.811C205.742 378.778 204.147 379.261 202.233 379.261C200.725 379.261 199.381 378.923 198.202 378.246C197.042 377.569 196.133 376.612 195.476 375.375C194.819 374.138 194.49 372.688 194.49 371.025ZM220.022 379.261C218.534 379.261 217.18 378.923 215.962 378.246C214.764 377.569 213.816 376.612 213.12 375.375C212.444 374.118 212.105 372.668 212.105 371.025C212.105 369.401 212.453 367.97 213.149 366.733C213.865 365.476 214.831 364.519 216.049 363.862C217.267 363.185 218.63 362.847 220.138 362.847C221.646 362.847 223.009 363.185 224.227 363.862C225.445 364.519 226.402 365.467 227.098 366.704C227.814 367.941 228.171 369.382 228.171 371.025C228.171 372.668 227.804 374.118 227.069 375.375C226.354 376.612 225.378 377.569 224.14 378.246C222.903 378.923 221.53 379.261 220.022 379.261ZM220.022 376.941C220.97 376.941 221.859 376.719 222.69 376.274C223.522 375.829 224.189 375.162 224.691 374.273C225.213 373.384 225.474 372.301 225.474 371.025C225.474 369.749 225.223 368.666 224.72 367.777C224.218 366.888 223.56 366.23 222.748 365.805C221.936 365.36 221.057 365.138 220.109 365.138C219.143 365.138 218.253 365.36 217.441 365.805C216.649 366.23 216.011 366.888 215.527 367.777C215.044 368.666 214.802 369.749 214.802 371.025C214.802 372.32 215.034 373.413 215.498 374.302C215.982 375.191 216.62 375.858 217.412 376.303C218.205 376.728 219.075 376.941 220.022 376.941ZM234.28 357.54V379H231.641V357.54H234.28ZM241.417 357.54V379H238.778V357.54H241.417ZM260.415 370.445C260.415 370.948 260.386 371.479 260.328 372.04H247.626C247.722 373.606 248.254 374.834 249.221 375.723C250.207 376.593 251.396 377.028 252.788 377.028C253.928 377.028 254.876 376.767 255.63 376.245C256.403 375.704 256.944 374.988 257.254 374.099H260.096C259.67 375.626 258.82 376.873 257.544 377.84C256.268 378.787 254.682 379.261 252.788 379.261C251.28 379.261 249.926 378.923 248.728 378.246C247.548 377.569 246.62 376.612 245.944 375.375C245.267 374.118 244.929 372.668 244.929 371.025C244.929 369.382 245.257 367.941 245.915 366.704C246.572 365.467 247.49 364.519 248.67 363.862C249.868 363.185 251.241 362.847 252.788 362.847C254.296 362.847 255.63 363.176 256.79 363.833C257.95 364.49 258.839 365.399 259.458 366.559C260.096 367.7 260.415 368.995 260.415 370.445ZM257.689 369.894C257.689 368.889 257.466 368.028 257.022 367.313C256.577 366.578 255.968 366.027 255.195 365.66C254.441 365.273 253.6 365.08 252.672 365.08C251.338 365.08 250.197 365.505 249.25 366.356C248.322 367.207 247.79 368.386 247.655 369.894H257.689ZM262.912 371.025C262.912 369.382 263.241 367.951 263.898 366.733C264.555 365.496 265.464 364.539 266.624 363.862C267.803 363.185 269.147 362.847 270.655 362.847C272.608 362.847 274.212 363.321 275.469 364.268C276.745 365.215 277.586 366.53 277.992 368.212H275.15C274.879 367.245 274.348 366.482 273.555 365.921C272.782 365.36 271.815 365.08 270.655 365.08C269.147 365.08 267.929 365.602 267.001 366.646C266.073 367.671 265.609 369.13 265.609 371.025C265.609 372.939 266.073 374.418 267.001 375.462C267.929 376.506 269.147 377.028 270.655 377.028C271.815 377.028 272.782 376.757 273.555 376.216C274.328 375.675 274.86 374.901 275.15 373.896H277.992C277.567 375.52 276.716 376.825 275.44 377.811C274.164 378.778 272.569 379.261 270.655 379.261C269.147 379.261 267.803 378.923 266.624 378.246C265.464 377.569 264.555 376.612 263.898 375.375C263.241 374.138 262.912 372.688 262.912 371.025ZM284.732 365.283V374.65C284.732 375.423 284.897 375.974 285.225 376.303C285.554 376.612 286.124 376.767 286.936 376.767H288.879V379H286.501C285.032 379 283.93 378.662 283.195 377.985C282.461 377.308 282.093 376.197 282.093 374.65V365.283H280.034V363.108H282.093V359.106H284.732V363.108H288.879V365.283H284.732ZM293.44 360.527C292.937 360.527 292.512 360.353 292.164 360.005C291.816 359.657 291.642 359.232 291.642 358.729C291.642 358.226 291.816 357.801 292.164 357.453C292.512 357.105 292.937 356.931 293.44 356.931C293.923 356.931 294.329 357.105 294.658 357.453C295.006 357.801 295.18 358.226 295.18 358.729C295.18 359.232 295.006 359.657 294.658 360.005C294.329 360.353 293.923 360.527 293.44 360.527ZM294.716 363.108V379H292.077V363.108H294.716ZM306.144 379.261C304.656 379.261 303.302 378.923 302.084 378.246C300.886 377.569 299.938 376.612 299.242 375.375C298.566 374.118 298.227 372.668 298.227 371.025C298.227 369.401 298.575 367.97 299.271 366.733C299.987 365.476 300.953 364.519 302.171 363.862C303.389 363.185 304.752 362.847 306.26 362.847C307.768 362.847 309.131 363.185 310.349 363.862C311.567 364.519 312.524 365.467 313.22 366.704C313.936 367.941 314.293 369.382 314.293 371.025C314.293 372.668 313.926 374.118 313.191 375.375C312.476 376.612 311.5 377.569 310.262 378.246C309.025 378.923 307.652 379.261 306.144 379.261ZM306.144 376.941C307.092 376.941 307.981 376.719 308.812 376.274C309.644 375.829 310.311 375.162 310.813 374.273C311.335 373.384 311.596 372.301 311.596 371.025C311.596 369.749 311.345 368.666 310.842 367.777C310.34 366.888 309.682 366.23 308.87 365.805C308.058 365.36 307.179 365.138 306.231 365.138C305.265 365.138 304.375 365.36 303.563 365.805C302.771 366.23 302.133 366.888 301.649 367.777C301.166 368.666 300.924 369.749 300.924 371.025C300.924 372.32 301.156 373.413 301.62 374.302C302.104 375.191 302.742 375.858 303.534 376.303C304.327 376.728 305.197 376.941 306.144 376.941ZM325.506 362.818C327.44 362.818 329.006 363.408 330.204 364.587C331.403 365.747 332.002 367.429 332.002 369.633V379H329.392V370.01C329.392 368.425 328.996 367.216 328.203 366.385C327.411 365.534 326.328 365.109 324.955 365.109C323.563 365.109 322.452 365.544 321.62 366.414C320.808 367.284 320.402 368.55 320.402 370.213V379H317.763V363.108H320.402V365.37C320.924 364.558 321.63 363.93 322.519 363.485C323.428 363.04 324.424 362.818 325.506 362.818ZM350.976 379.261C349.487 379.261 348.134 378.923 346.916 378.246C345.717 377.569 344.77 376.612 344.074 375.375C343.397 374.118 343.059 372.668 343.059 371.025C343.059 369.401 343.407 367.97 344.103 366.733C344.818 365.476 345.785 364.519 347.003 363.862C348.221 363.185 349.584 362.847 351.092 362.847C352.6 362.847 353.963 363.185 355.181 363.862C356.399 364.519 357.356 365.467 358.052 366.704C358.767 367.941 359.125 369.382 359.125 371.025C359.125 372.668 358.757 374.118 358.023 375.375C357.307 376.612 356.331 377.569 355.094 378.246C353.856 378.923 352.484 379.261 350.976 379.261ZM350.976 376.941C351.923 376.941 352.812 376.719 353.644 376.274C354.475 375.829 355.142 375.162 355.645 374.273C356.167 373.384 356.428 372.301 356.428 371.025C356.428 369.749 356.176 368.666 355.674 367.777C355.171 366.888 354.514 366.23 353.702 365.805C352.89 365.36 352.01 365.138 351.063 365.138C350.096 365.138 349.207 365.36 348.395 365.805C347.602 366.23 346.964 366.888 346.481 367.777C345.997 368.666 345.756 369.749 345.756 371.025C345.756 372.32 345.988 373.413 346.452 374.302C346.935 375.191 347.573 375.858 348.366 376.303C349.158 376.728 350.028 376.941 350.976 376.941ZM369.061 365.283H365.726V379H363.087V365.283H361.028V363.108H363.087V361.977C363.087 360.198 363.542 358.903 364.45 358.091C365.378 357.26 366.857 356.844 368.887 356.844V359.048C367.727 359.048 366.906 359.28 366.422 359.744C365.958 360.189 365.726 360.933 365.726 361.977V363.108H369.061V365.283ZM378.884 370.996C378.884 369.372 379.212 367.951 379.87 366.733C380.527 365.496 381.426 364.539 382.567 363.862C383.727 363.185 385.012 362.847 386.424 362.847C387.816 362.847 389.024 363.147 390.049 363.746C391.073 364.345 391.837 365.099 392.34 366.008V363.108H395.008V379H392.34V376.042C391.818 376.97 391.035 377.743 389.991 378.362C388.966 378.961 387.767 379.261 386.395 379.261C384.983 379.261 383.707 378.913 382.567 378.217C381.426 377.521 380.527 376.545 379.87 375.288C379.212 374.031 378.884 372.601 378.884 370.996ZM392.34 371.025C392.34 369.826 392.098 368.782 391.615 367.893C391.131 367.004 390.474 366.327 389.643 365.863C388.831 365.38 387.932 365.138 386.946 365.138C385.96 365.138 385.061 365.37 384.249 365.834C383.437 366.298 382.789 366.975 382.306 367.864C381.822 368.753 381.581 369.797 381.581 370.996C381.581 372.214 381.822 373.277 382.306 374.186C382.789 375.075 383.437 375.762 384.249 376.245C385.061 376.709 385.96 376.941 386.946 376.941C387.932 376.941 388.831 376.709 389.643 376.245C390.474 375.762 391.131 375.075 391.615 374.186C392.098 373.277 392.34 372.224 392.34 371.025ZM402.106 365.689C402.57 364.78 403.228 364.075 404.078 363.572C404.948 363.069 406.002 362.818 407.239 362.818V365.544H406.543C403.585 365.544 402.106 367.149 402.106 370.358V379H399.467V363.108H402.106V365.689ZM413.505 365.283V374.65C413.505 375.423 413.669 375.974 413.998 376.303C414.326 376.612 414.897 376.767 415.709 376.767H417.652V379H415.274C413.804 379 412.702 378.662 411.968 377.985C411.233 377.308 410.866 376.197 410.866 374.65V365.283H408.807V363.108H410.866V359.106H413.505V363.108H417.652V365.283H413.505ZM422.212 360.527C421.71 360.527 421.284 360.353 420.936 360.005C420.588 359.657 420.414 359.232 420.414 358.729C420.414 358.226 420.588 357.801 420.936 357.453C421.284 357.105 421.71 356.931 422.212 356.931C422.696 356.931 423.102 357.105 423.43 357.453C423.778 357.801 423.952 358.226 423.952 358.729C423.952 359.232 423.778 359.657 423.43 360.005C423.102 360.353 422.696 360.527 422.212 360.527ZM423.488 363.108V379H420.849V363.108H423.488ZM427 371.025C427 369.382 427.329 367.951 427.986 366.733C428.643 365.496 429.552 364.539 430.712 363.862C431.891 363.185 433.235 362.847 434.743 362.847C436.696 362.847 438.3 363.321 439.557 364.268C440.833 365.215 441.674 366.53 442.08 368.212H439.238C438.967 367.245 438.436 366.482 437.643 365.921C436.87 365.36 435.903 365.08 434.743 365.08C433.235 365.08 432.017 365.602 431.089 366.646C430.161 367.671 429.697 369.13 429.697 371.025C429.697 372.939 430.161 374.418 431.089 375.462C432.017 376.506 433.235 377.028 434.743 377.028C435.903 377.028 436.87 376.757 437.643 376.216C438.416 375.675 438.948 374.901 439.238 373.896H442.08C441.655 375.52 440.804 376.825 439.528 377.811C438.252 378.778 436.657 379.261 434.743 379.261C433.235 379.261 431.891 378.923 430.712 378.246C429.552 377.569 428.643 376.612 427.986 375.375C427.329 374.138 427 372.688 427 371.025ZM448.24 357.54V379H445.601V357.54H448.24ZM467.238 370.445C467.238 370.948 467.209 371.479 467.151 372.04H454.449C454.546 373.606 455.077 374.834 456.044 375.723C457.03 376.593 458.219 377.028 459.611 377.028C460.752 377.028 461.699 376.767 462.453 376.245C463.226 375.704 463.768 374.988 464.077 374.099H466.919C466.494 375.626 465.643 376.873 464.367 377.84C463.091 378.787 461.506 379.261 459.611 379.261C458.103 379.261 456.75 378.923 455.551 378.246C454.372 377.569 453.444 376.612 452.767 375.375C452.09 374.118 451.752 372.668 451.752 371.025C451.752 369.382 452.081 367.941 452.738 366.704C453.395 365.467 454.314 364.519 455.493 363.862C456.692 363.185 458.064 362.847 459.611 362.847C461.119 362.847 462.453 363.176 463.613 363.833C464.773 364.49 465.662 365.399 466.281 366.559C466.919 367.7 467.238 368.995 467.238 370.445ZM464.512 369.894C464.512 368.889 464.29 368.028 463.845 367.313C463.4 366.578 462.791 366.027 462.018 365.66C461.264 365.273 460.423 365.08 459.495 365.08C458.161 365.08 457.02 365.505 456.073 366.356C455.145 367.207 454.613 368.386 454.478 369.894H464.512ZM476.347 379.261C475.129 379.261 474.037 379.058 473.07 378.652C472.104 378.227 471.34 377.647 470.779 376.912C470.219 376.158 469.909 375.298 469.851 374.331H472.577C472.655 375.124 473.022 375.771 473.679 376.274C474.356 376.777 475.236 377.028 476.318 377.028C477.324 377.028 478.116 376.806 478.696 376.361C479.276 375.916 479.566 375.356 479.566 374.679C479.566 373.983 479.257 373.471 478.638 373.142C478.02 372.794 477.063 372.456 475.767 372.127C474.588 371.818 473.621 371.508 472.867 371.199C472.133 370.87 471.495 370.397 470.953 369.778C470.431 369.14 470.17 368.309 470.17 367.284C470.17 366.472 470.412 365.728 470.895 365.051C471.379 364.374 472.065 363.843 472.954 363.456C473.844 363.05 474.859 362.847 475.999 362.847C477.759 362.847 479.18 363.292 480.262 364.181C481.345 365.07 481.925 366.288 482.002 367.835H479.363C479.305 367.004 478.967 366.337 478.348 365.834C477.749 365.331 476.937 365.08 475.912 365.08C474.965 365.08 474.211 365.283 473.65 365.689C473.09 366.095 472.809 366.627 472.809 367.284C472.809 367.806 472.974 368.241 473.302 368.589C473.65 368.918 474.076 369.188 474.578 369.401C475.1 369.594 475.816 369.817 476.724 370.068C477.865 370.377 478.793 370.687 479.508 370.996C480.224 371.286 480.833 371.731 481.335 372.33C481.857 372.929 482.128 373.712 482.147 374.679C482.147 375.549 481.906 376.332 481.422 377.028C480.939 377.724 480.253 378.275 479.363 378.681C478.493 379.068 477.488 379.261 476.347 379.261ZM500.071 365.283H496.736V379H494.097V365.283H492.038V363.108H494.097V361.977C494.097 360.198 494.551 358.903 495.46 358.091C496.388 357.26 497.867 356.844 499.897 356.844V359.048C498.737 359.048 497.915 359.28 497.432 359.744C496.968 360.189 496.736 360.933 496.736 361.977V363.108H500.071V365.283ZM510.079 379.261C508.59 379.261 507.237 378.923 506.019 378.246C504.82 377.569 503.873 376.612 503.177 375.375C502.5 374.118 502.162 372.668 502.162 371.025C502.162 369.401 502.51 367.97 503.206 366.733C503.921 365.476 504.888 364.519 506.106 363.862C507.324 363.185 508.687 362.847 510.195 362.847C511.703 362.847 513.066 363.185 514.284 363.862C515.502 364.519 516.459 365.467 517.155 366.704C517.87 367.941 518.228 369.382 518.228 371.025C518.228 372.668 517.861 374.118 517.126 375.375C516.411 376.612 515.434 377.569 514.197 378.246C512.96 378.923 511.587 379.261 510.079 379.261ZM510.079 376.941C511.026 376.941 511.916 376.719 512.747 376.274C513.578 375.829 514.245 375.162 514.748 374.273C515.27 373.384 515.531 372.301 515.531 371.025C515.531 369.749 515.28 368.666 514.777 367.777C514.274 366.888 513.617 366.23 512.805 365.805C511.993 365.36 511.113 365.138 510.166 365.138C509.199 365.138 508.31 365.36 507.498 365.805C506.705 366.23 506.067 366.888 505.584 367.777C505.101 368.666 504.859 369.749 504.859 371.025C504.859 372.32 505.091 373.413 505.555 374.302C506.038 375.191 506.676 375.858 507.469 376.303C508.262 376.728 509.132 376.941 510.079 376.941ZM524.337 365.689C524.801 364.78 525.458 364.075 526.309 363.572C527.179 363.069 528.233 362.818 529.47 362.818V365.544H528.774C525.816 365.544 524.337 367.149 524.337 370.358V379H521.698V363.108H524.337V365.689ZM542.887 366.066C543.428 365.119 544.221 364.345 545.265 363.746C546.309 363.147 547.498 362.847 548.832 362.847C550.262 362.847 551.548 363.185 552.689 363.862C553.829 364.539 554.728 365.496 555.386 366.733C556.043 367.951 556.372 369.372 556.372 370.996C556.372 372.601 556.043 374.031 555.386 375.288C554.728 376.545 553.82 377.521 552.66 378.217C551.519 378.913 550.243 379.261 548.832 379.261C547.459 379.261 546.251 378.961 545.207 378.362C544.182 377.763 543.409 376.999 542.887 376.071V379H540.248V357.54H542.887V366.066ZM553.675 370.996C553.675 369.797 553.433 368.753 552.95 367.864C552.466 366.975 551.809 366.298 550.978 365.834C550.166 365.37 549.267 365.138 548.281 365.138C547.314 365.138 546.415 365.38 545.584 365.863C544.772 366.327 544.114 367.013 543.612 367.922C543.128 368.811 542.887 369.846 542.887 371.025C542.887 372.224 543.128 373.277 543.612 374.186C544.114 375.075 544.772 375.762 545.584 376.245C546.415 376.709 547.314 376.941 548.281 376.941C549.267 376.941 550.166 376.709 550.978 376.245C551.809 375.762 552.466 375.075 552.95 374.186C553.433 373.277 553.675 372.214 553.675 370.996ZM573.939 363.108V379H571.3V376.651C570.798 377.463 570.092 378.101 569.183 378.565C568.294 379.01 567.308 379.232 566.225 379.232C564.988 379.232 563.876 378.981 562.89 378.478C561.904 377.956 561.121 377.183 560.541 376.158C559.981 375.133 559.7 373.886 559.7 372.417V363.108H562.31V372.069C562.31 373.635 562.707 374.843 563.499 375.694C564.292 376.525 565.375 376.941 566.747 376.941C568.159 376.941 569.27 376.506 570.082 375.636C570.894 374.766 571.3 373.5 571.3 371.837V363.108H573.939ZM584.021 379.261C582.803 379.261 581.711 379.058 580.744 378.652C579.777 378.227 579.014 377.647 578.453 376.912C577.892 376.158 577.583 375.298 577.525 374.331H580.251C580.328 375.124 580.696 375.771 581.353 376.274C582.03 376.777 582.909 377.028 583.992 377.028C584.997 377.028 585.79 376.806 586.37 376.361C586.95 375.916 587.24 375.356 587.24 374.679C587.24 373.983 586.931 373.471 586.312 373.142C585.693 372.794 584.736 372.456 583.441 372.127C582.262 371.818 581.295 371.508 580.541 371.199C579.806 370.87 579.168 370.397 578.627 369.778C578.105 369.14 577.844 368.309 577.844 367.284C577.844 366.472 578.086 365.728 578.569 365.051C579.052 364.374 579.739 363.843 580.628 363.456C581.517 363.05 582.532 362.847 583.673 362.847C585.432 362.847 586.853 363.292 587.936 364.181C589.019 365.07 589.599 366.288 589.676 367.835H587.037C586.979 367.004 586.641 366.337 586.022 365.834C585.423 365.331 584.611 365.08 583.586 365.08C582.639 365.08 581.885 365.283 581.324 365.689C580.763 366.095 580.483 366.627 580.483 367.284C580.483 367.806 580.647 368.241 580.976 368.589C581.324 368.918 581.749 369.188 582.252 369.401C582.774 369.594 583.489 369.817 584.398 370.068C585.539 370.377 586.467 370.687 587.182 370.996C587.897 371.286 588.506 371.731 589.009 372.33C589.531 372.929 589.802 373.712 589.821 374.679C589.821 375.549 589.579 376.332 589.096 377.028C588.613 377.724 587.926 378.275 587.037 378.681C586.167 379.068 585.162 379.261 584.021 379.261ZM607.234 363.108L597.664 386.482H594.938L598.07 378.826L591.661 363.108H594.59L599.578 375.984L604.508 363.108H607.234ZM616.633 370.996C616.633 369.372 616.961 367.951 617.619 366.733C618.276 365.496 619.175 364.539 620.316 363.862C621.476 363.185 622.771 362.847 624.202 362.847C625.439 362.847 626.589 363.137 627.653 363.717C628.716 364.278 629.528 365.022 630.089 365.95V357.54H632.757V379H630.089V376.013C629.567 376.96 628.793 377.743 627.769 378.362C626.744 378.961 625.545 379.261 624.173 379.261C622.761 379.261 621.476 378.913 620.316 378.217C619.175 377.521 618.276 376.545 617.619 375.288C616.961 374.031 616.633 372.601 616.633 370.996ZM630.089 371.025C630.089 369.826 629.847 368.782 629.364 367.893C628.88 367.004 628.223 366.327 627.392 365.863C626.58 365.38 625.681 365.138 624.695 365.138C623.709 365.138 622.81 365.37 621.998 365.834C621.186 366.298 620.538 366.975 620.055 367.864C619.571 368.753 619.33 369.797 619.33 370.996C619.33 372.214 619.571 373.277 620.055 374.186C620.538 375.075 621.186 375.762 621.998 376.245C622.81 376.709 623.709 376.941 624.695 376.941C625.681 376.941 626.58 376.709 627.392 376.245C628.223 375.762 628.88 375.075 629.364 374.186C629.847 373.277 630.089 372.224 630.089 371.025ZM651.716 370.445C651.716 370.948 651.687 371.479 651.629 372.04H638.927C639.024 373.606 639.556 374.834 640.522 375.723C641.508 376.593 642.697 377.028 644.089 377.028C645.23 377.028 646.177 376.767 646.931 376.245C647.705 375.704 648.246 374.988 648.555 374.099H651.397C650.972 375.626 650.121 376.873 648.845 377.84C647.569 378.787 645.984 379.261 644.089 379.261C642.581 379.261 641.228 378.923 640.029 378.246C638.85 377.569 637.922 376.612 637.245 375.375C636.569 374.118 636.23 372.668 636.23 371.025C636.23 369.382 636.559 367.941 637.216 366.704C637.874 365.467 638.792 364.519 639.971 363.862C641.17 363.185 642.543 362.847 644.089 362.847C645.597 362.847 646.931 363.176 648.091 363.833C649.251 364.49 650.141 365.399 650.759 366.559C651.397 367.7 651.716 368.995 651.716 370.445ZM648.99 369.894C648.99 368.889 648.768 368.028 648.323 367.313C647.879 366.578 647.27 366.027 646.496 365.66C645.742 365.273 644.901 365.08 643.973 365.08C642.639 365.08 641.499 365.505 640.551 366.356C639.623 367.207 639.092 368.386 638.956 369.894H648.99ZM661.116 376.564L666.046 363.108H668.859L662.624 379H659.55L653.315 363.108H656.157L661.116 376.564ZM685.956 370.445C685.956 370.948 685.927 371.479 685.869 372.04H673.167C673.263 373.606 673.795 374.834 674.762 375.723C675.748 376.593 676.937 377.028 678.329 377.028C679.469 377.028 680.417 376.767 681.171 376.245C681.944 375.704 682.485 374.988 682.795 374.099H685.637C685.211 375.626 684.361 376.873 683.085 377.84C681.809 378.787 680.223 379.261 678.329 379.261C676.821 379.261 675.467 378.923 674.269 378.246C673.089 377.569 672.161 376.612 671.485 375.375C670.808 374.118 670.47 372.668 670.47 371.025C670.47 369.382 670.798 367.941 671.456 366.704C672.113 365.467 673.031 364.519 674.211 363.862C675.409 363.185 676.782 362.847 678.329 362.847C679.837 362.847 681.171 363.176 682.331 363.833C683.491 364.49 684.38 365.399 684.999 366.559C685.637 367.7 685.956 368.995 685.956 370.445ZM683.23 369.894C683.23 368.889 683.007 368.028 682.563 367.313C682.118 366.578 681.509 366.027 680.736 365.66C679.982 365.273 679.141 365.08 678.213 365.08C676.879 365.08 675.738 365.505 674.791 366.356C673.863 367.207 673.331 368.386 673.196 369.894H683.23ZM692.078 357.54V379H689.439V357.54H692.078ZM703.507 379.261C702.018 379.261 700.665 378.923 699.447 378.246C698.248 377.569 697.301 376.612 696.605 375.375C695.928 374.118 695.59 372.668 695.59 371.025C695.59 369.401 695.938 367.97 696.634 366.733C697.349 365.476 698.316 364.519 699.534 363.862C700.752 363.185 702.115 362.847 703.623 362.847C705.131 362.847 706.494 363.185 707.712 363.862C708.93 364.519 709.887 365.467 710.583 366.704C711.298 367.941 711.656 369.382 711.656 371.025C711.656 372.668 711.288 374.118 710.554 375.375C709.838 376.612 708.862 377.569 707.625 378.246C706.387 378.923 705.015 379.261 703.507 379.261ZM703.507 376.941C704.454 376.941 705.343 376.719 706.175 376.274C707.006 375.829 707.673 375.162 708.176 374.273C708.698 373.384 708.959 372.301 708.959 371.025C708.959 369.749 708.707 368.666 708.205 367.777C707.702 366.888 707.045 366.23 706.233 365.805C705.421 365.36 704.541 365.138 703.594 365.138C702.627 365.138 701.738 365.36 700.926 365.805C700.133 366.23 699.495 366.888 699.012 367.777C698.528 368.666 698.287 369.749 698.287 371.025C698.287 372.32 698.519 373.413 698.983 374.302C699.466 375.191 700.104 375.858 700.897 376.303C701.689 376.728 702.559 376.941 703.507 376.941ZM717.765 366.037C718.287 365.128 719.06 364.374 720.085 363.775C721.129 363.156 722.337 362.847 723.71 362.847C725.121 362.847 726.397 363.185 727.538 363.862C728.698 364.539 729.606 365.496 730.264 366.733C730.921 367.951 731.25 369.372 731.25 370.996C731.25 372.601 730.921 374.031 730.264 375.288C729.606 376.545 728.698 377.521 727.538 378.217C726.397 378.913 725.121 379.261 723.71 379.261C722.356 379.261 721.158 378.961 720.114 378.362C719.089 377.743 718.306 376.98 717.765 376.071V386.54H715.126V363.108H717.765V366.037ZM728.553 370.996C728.553 369.797 728.311 368.753 727.828 367.864C727.344 366.975 726.687 366.298 725.856 365.834C725.044 365.37 724.145 365.138 723.159 365.138C722.192 365.138 721.293 365.38 720.462 365.863C719.65 366.327 718.992 367.013 718.49 367.922C718.006 368.811 717.765 369.846 717.765 371.025C717.765 372.224 718.006 373.277 718.49 374.186C718.992 375.075 719.65 375.762 720.462 376.245C721.293 376.709 722.192 376.941 723.159 376.941C724.145 376.941 725.044 376.709 725.856 376.245C726.687 375.762 727.344 375.075 727.828 374.186C728.311 373.277 728.553 372.214 728.553 370.996ZM749.223 370.445C749.223 370.948 749.194 371.479 749.136 372.04H736.434C736.531 373.606 737.063 374.834 738.029 375.723C739.015 376.593 740.204 377.028 741.596 377.028C742.737 377.028 743.684 376.767 744.438 376.245C745.212 375.704 745.753 374.988 746.062 374.099H748.904C748.479 375.626 747.628 376.873 746.352 377.84C745.076 378.787 743.491 379.261 741.596 379.261C740.088 379.261 738.735 378.923 737.536 378.246C736.357 377.569 735.429 376.612 734.752 375.375C734.076 374.118 733.737 372.668 733.737 371.025C733.737 369.382 734.066 367.941 734.723 366.704C735.381 365.467 736.299 364.519 737.478 363.862C738.677 363.185 740.05 362.847 741.596 362.847C743.104 362.847 744.438 363.176 745.598 363.833C746.758 364.49 747.648 365.399 748.266 366.559C748.904 367.7 749.223 368.995 749.223 370.445ZM746.497 369.894C746.497 368.889 746.275 368.028 745.83 367.313C745.386 366.578 744.777 366.027 744.003 365.66C743.249 365.273 742.408 365.08 741.48 365.08C740.146 365.08 739.006 365.505 738.058 366.356C737.13 367.207 736.599 368.386 736.463 369.894H746.497ZM755.346 365.689C755.81 364.78 756.467 364.075 757.318 363.572C758.188 363.069 759.241 362.818 760.479 362.818V365.544H759.783C756.825 365.544 755.346 367.149 755.346 370.358V379H752.707V363.108H755.346V365.689ZM769.151 379.261C767.933 379.261 766.841 379.058 765.874 378.652C764.907 378.227 764.144 377.647 763.583 376.912C763.022 376.158 762.713 375.298 762.655 374.331H765.381C765.458 375.124 765.826 375.771 766.483 376.274C767.16 376.777 768.039 377.028 769.122 377.028C770.127 377.028 770.92 376.806 771.5 376.361C772.08 375.916 772.37 375.356 772.37 374.679C772.37 373.983 772.061 373.471 771.442 373.142C770.823 372.794 769.866 372.456 768.571 372.127C767.392 371.818 766.425 371.508 765.671 371.199C764.936 370.87 764.298 370.397 763.757 369.778C763.235 369.14 762.974 368.309 762.974 367.284C762.974 366.472 763.216 365.728 763.699 365.051C764.182 364.374 764.869 363.843 765.758 363.456C766.647 363.05 767.662 362.847 768.803 362.847C770.562 362.847 771.983 363.292 773.066 364.181C774.149 365.07 774.729 366.288 774.806 367.835H772.167C772.109 367.004 771.771 366.337 771.152 365.834C770.553 365.331 769.741 365.08 768.716 365.08C767.769 365.08 767.015 365.283 766.454 365.689C765.893 366.095 765.613 366.627 765.613 367.284C765.613 367.806 765.777 368.241 766.106 368.589C766.454 368.918 766.879 369.188 767.382 369.401C767.904 369.594 768.619 369.817 769.528 370.068C770.669 370.377 771.597 370.687 772.312 370.996C773.027 371.286 773.636 371.731 774.139 372.33C774.661 372.929 774.932 373.712 774.951 374.679C774.951 375.549 774.709 376.332 774.226 377.028C773.743 377.724 773.056 378.275 772.167 378.681C771.297 379.068 770.292 379.261 769.151 379.261Z" fill="white"/>
<path d="M359.141 204.084C346.334 204.077 337.943 195.044 334.543 187.142C332.623 183.194 325 166.612 325 152.214C325 138.165 333.269 124.824 345.55 117.811V115.692C345.55 107.488 352.225 100.814 360.429 100.814H369.582C365.595 87.9757 361.168 61.7949 380.753 39.2444C383.596 35.983 387.687 34.1231 391.992 34.1231C392.023 34.1231 392.055 34.1231 392.088 34.1231C403.12 19.3584 425.355 0 466.073 0C479.143 0 493.391 2.0409 508.42 6.06683C513.141 7.33876 516.934 10.8371 518.58 15.4308C520.223 20.0536 519.498 25.1659 516.646 29.1293C515.557 30.6404 514.518 32.1649 513.494 33.6649L513.284 33.9711C509.712 39.2131 506.008 44.6451 500.947 49.3483C497.585 52.4734 492.982 55.8935 487.624 58.8263C487.655 62.6645 486.193 66.4199 483.426 69.279C458.915 94.55 437.446 107.046 420.746 113.028C420.902 113.893 420.985 114.782 420.985 115.692V117.811C433.264 124.822 441.535 138.165 441.535 152.214C441.535 166.59 433.91 183.192 431.994 187.14C428.599 195.033 420.218 204.064 407.439 204.084H359.141Z" fill="#F2F2F2"/>
<path d="M456.281 50.7695C469.565 53.4306 484.002 44.7818 490.816 38.4502C496.025 33.6102 499.885 26.9498 504.568 20.4412C415.269 -3.49325 396.204 56.9454 396.204 56.9454C396.204 56.9454 393.434 58.6419 391.988 48.9987C371.401 72.7033 386.088 102.466 386.088 102.466C386.088 102.466 420.517 112.768 472.739 58.926C464.083 57.6306 460.824 55.5498 456.281 50.7695Z" fill="#FF7575" stroke="#40396E" stroke-width="5" stroke-miterlimit="10" stroke-linecap="round" stroke-linejoin="round"/>
<path d="M406.107 127.964V115.694C406.107 115.694 406.107 115.693 406.106 115.693H360.429V127.964C348.772 130.127 339.879 141.156 339.879 152.215C339.879 164.545 348.099 180.993 348.099 180.993C348.099 180.993 351.18 189.2 359.14 189.205C372.415 189.205 394.139 189.205 407.414 189.205C415.359 189.191 418.437 180.993 418.437 180.993C418.437 180.993 426.657 164.545 426.657 152.215C426.657 141.156 417.763 130.127 406.107 127.964Z" fill="#9AA2E6" stroke="#40396E" stroke-width="5" stroke-miterlimit="10" stroke-linecap="round" stroke-linejoin="round"/>
<path d="M459.269 35.3951C406.115 54.163 379.073 100.319 375.724 149.772" stroke="#40396E" stroke-width="5" stroke-miterlimit="10" stroke-linecap="round" stroke-linejoin="round"/>
<path d="M413.563 143.995H352.973C351.346 146.585 350.388 149.478 350.388 152.215C350.388 160.739 355.694 173.225 357.741 177.315L357.934 177.701L358.082 178.104C358.086 178.104 359.356 180.985 361.432 180.985H405.1C407.163 180.985 408.442 178.137 408.45 178.104L408.598 177.701L408.791 177.315C410.838 173.213 416.148 160.686 416.148 152.215C416.148 149.478 415.19 146.585 413.563 143.995Z" fill="#707CC0"/>
</svg>
